# xmcd CD database file
#
# Track frame offsets:
#	150
#	8965
#	25750
#	44815
#	58925
#	72027
#	93765
#	107430
#	116770
#	127142
#	140335
#	151010
#	164820
#	197852
#	209652
#	224327
#	243285
#	267300
#	281332
#	290552
#
# Disc length: 4230 seconds
#
# Revision: 4
# Processed by: cddbd v1.5.2PL0 Copyright (c) Steve Scherf et al.
# Submitted via: CDex 1.51
#
DISCID=35108414
DTITLE=Billy Joe Shaver and Kinky Friedman - Live From Down Under
DYEAR=2002
DGENRE=Country
TTITLE0=Intro - Coin Toss
TTITLE1=Good News Blues
TTITLE2=Georgia On A Fast Train
TTITLE3=Honky Tonk Heroes
TTITLE4=Western Union Wire
TTITLE5=Get Your Biscuits In The Oven And Your Buns In The Bed
TTITLE6=Before All Hell Breaks Loose
TTITLE7=First And Last Time
TTITLE8=Star In My Heart
TTITLE9=Woman Is The Wonder Of The World
TTITLE10=Rapid City, South Dakota
TTITLE11=Marilyn And Joe
TTITLE12=Homo Erectus
TTITLE13=Black Rose
TTITLE14=Old Chunk Of Coal
TTITLE15=When The Fallen Angels Fly
TTITLE16=Thunderbird
TTITLE17=Sold American
TTITLE18=Sunday! Sunday! Sunday!
TTITLE19=Wild Man From Borneo
EXTD=YEAR: 2002
EXTT0=
EXTT1=
EXTT2=
EXTT3=
EXTT4=
EXTT5=
EXTT6=
EXTT7=
EXTT8=
EXTT9=
EXTT10=
EXTT11=
EXTT12=
EXTT13=
EXTT14=
EXTT15=
EXTT16=
EXTT17=
EXTT18=
EXTT19=
PLAYORDER=
